PathFileType        4      (X/Y/Z)      C:\Users\pc\Desktop\IMUTRC\Sujet_06\Sujet_06_velo_80.trc         
DataRate	CameraRate	NumFrames	NumMarkers	Units	OrigDataRate	OrigDataStartFrame	OrigNumFrames
60.0	60.0	4	64	mm	60.0	356	948
Frame#	Time	pHipOrigin			pRightASI			pLeftASI			pRightCSI			pLeftCSI			pRightIschialTub			pLeftIschialTub			pSacrum			pL5SpinalProcess			pL3SpinalProcess			pT12SpinalProcess			pIJ			pT4SpinalProcess			pT8SpinalProcess			pPX			pC7SpinalProcess			pTopOfHead			pRightAuricularis			pLeftAuricularis			pBackOfHead			pRightAcromion			pLeftAcromion			pRightArmLatEpicondyle			pRightArmMedEpicondyle			pLeftArmLatEpicondyle			pLeftArmMedEpicondyle			pRightUlnarStyloid			pRightRadialStyloid			pRightOlecranon			pLeftUlnarStyloid			pLeftRadialStyloid			pLeftOlecranon			pRightTopOfHand			pRightPinky			pRightBallHand			pLeftTopOfHand			pLeftPinky			pLeftBallHand			pRightGreaterTrochanter			pRightKneeLatEpicondyle			pRightKneeMedEpicondyle			pRightPatella			pLeftGreaterTrochanter			pLeftKneeLatEpicondyle			pLeftKneeMedEpicondyle			pLeftPatella			pRightTibialTub			pRightLatMalleolus			pRightMedMalleolus			pLeftTibialTub			pLeftLatMalleolus			pLeftMedMalleolus			pRightHeelFoot			pRightFirstMetatarsal			pRightFifthMetatarsal			pRightPivotFoot			pRightHeelCenter			pRightToe			pLeftHeelFoot			pLeftFirstMetatarsal			pLeftFifthMetatarsal			pLeftPivotFoot			pLeftHeelCenter			pLeftToe			
		X1	Y1	Z1	X2	Y2	Z2	X3	Y3	Z3	X4	Y4	Z4	X5	Y5	Z5	X6	Y6	Z6	X7	Y7	Z7	X8	Y8	Z8	X9	Y9	Z9	X10	Y10	Z10	X11	Y11	Z11	X12	Y12	Z12	X13	Y13	Z13	X14	Y14	Z14	X15	Y15	Z15	X16	Y16	Z16	X17	Y17	Z17	X18	Y18	Z18	X19	Y19	Z19	X20	Y20	Z20	X21	Y21	Z21	X22	Y22	Z22	X23	Y23	Z23	X24	Y24	Z24	X25	Y25	Z25	X26	Y26	Z26	X27	Y27	Z27	X28	Y28	Z28	X29	Y29	Z29	X30	Y30	Z30	X31	Y31	Z31	X32	Y32	Z32	X33	Y33	Z33	X34	Y34	Z34	X35	Y35	Z35	X36	Y36	Z36	X37	Y37	Z37	X38	Y38	Z38	X39	Y39	Z39	X40	Y40	Z40	X41	Y41	Z41	X42	Y42	Z42	X43	Y43	Z43	X44	Y44	Z44	X45	Y45	Z45	X46	Y46	Z46	X47	Y47	Z47	X48	Y48	Z48	X49	Y49	Z49	X50	Y50	Z50	X51	Y51	Z51	X52	Y52	Z52	X53	Y53	Z53	X54	Y54	Z54	X55	Y55	Z55	X56	Y56	Z56	X57	Y57	Z57	X58	Y58	Z58	X59	Y59	Z59	X60	Y60	Z60	X61	Y61	Z61	X62	Y62	Z62	X63	Y63	Z63	X64	Y64	Z64	
356	5.917	0.0	1250.06673	7.654451098075493E-14	29.28573000000002	1324.23012	133.41276000000008	86.23019999999998	1343.75394	-89.21300999999993	-3.1183899999999865	1385.24206	111.71963000000008	44.877669999999995	1401.64749	-75.92595999999992	-59.791689999999996	1198.27437	30.505970000000083	-35.793670000000006	1206.54488	-63.316829999999925	-56.26656	1270.53962	-12.609129999999915	-25.89618	1360.56612	2.982810000000087	18.032420000000002	1469.84527	22.777790000000085	60.06286000000001	1569.09135	41.08137000000009	299.90755	1654.50806	107.65217000000005	169.34201	1730.29844	80.26459000000008	112.39754000000002	1661.82949	61.147520000000085	225.87974	1557.70245	82.16274000000007	211.64362	1776.93867	93.82280000000009	491.6206	1799.71646	103.17796000000006	390.88312	1788.32756	179.78183000000007	385.731	1782.09079	35.38692000000006	380.30772	1841.47574	105.48285000000007	179.78183000000004	1733.68799	267.09669000000014	261.40224	1750.36458	-82.56947999999991	332.58283000000006	1475.40413	259.6396700000001	324.85465	1472.15017	197.13634000000005	423.15165	1511.33338	-119.44780999999996	396.3064	1483.40348	-69.82476999999996	505.85672000000005	1289.92786	261.80899	535.82036	1321.65406	233.33675000000002	311.43203000000005	1460.49011	244.72564000000006	622.59289	1354.46492	-117.68523999999998	629.23641	1366.66731	-67.51986999999998	404.44133	1494.38563	-121.61711999999996	688.48577	1316.23078	260.31758	616.35611	1280.97944	275.63836	551.27672	1288.30087	252.31824000000003	780.00367	1338.33066	-29.014560000000014	724.14386	1331.68714	-88.26393	655.40375	1340.77113	-93.41605	1.783271273548617E-14	1221.05216	145.61515000000009	352.10665	1079.09773	152.93658	364.44462	1090.62221	81.07808000000003	370.95256	1123.83982	122.83736000000003	42.43718999999999	1232.44106	-143.9881599999999	226.28647999999998	901.07847	-119.85454999999997	220.72762	896.73984	-46.50464999999997	257.60594	921.41578	-76.73944999999998	371.63047	1036.79612	120.26130000000002	75.79038000000001	809.15382	128.12506000000005	82.70507000000002	806.03543	69.41802000000003	272.65555	867.58969	-84.46762999999997	189.13698999999997	507.21254	-135.17533	191.98422	503.14508	-76.19713	-5.830029999999989	776.47854	88.80626000000004	106.56751000000001	660.42029	90.56883000000003	93.28047000000001	673.165	164.73222000000004	114.56685000000002	651.33629	131.78578000000002	20.74406000000001	751.53144	97.75468000000004	165.68130000000002	598.32369	150.22494	129.61646	437.65894	-98.97490999999998	280.92606	392.64569	-65.48614	277.67209	388.0359	-141.68327	300.04313	383.69727	-103.04238000000001	165.81688	428.16819	-100.05956999999998	372.57954	360.64832	-104.80494000000002	
357	5.933	0.0	1250.06673	7.654451098075493E-14	29.014560000000017	1324.3657	133.41276000000008	86.90810999999998	1343.34719	-88.94183999999993	-3.1183899999999865	1385.51322	111.44847000000009	45.691159999999996	1401.37632	-75.92595999999992	-60.06285999999999	1198.54554	30.370380000000083	-35.65809000000001	1206.54488	-63.316829999999925	-56.13098	1270.6752	-12.880299999999915	-25.62501	1360.7017	2.7116400000000866	18.574740000000002	1469.84527	22.777790000000085	61.01193000000001	1568.82018	41.21695000000009	300.85662	1653.55898	108.60124000000006	170.56225	1729.75611	80.94250000000008	113.48220000000002	1661.42274	61.41868000000009	226.55765	1556.88896	82.70507000000008	212.99944	1776.26076	94.63629000000009	492.84084	1799.03855	104.66936000000005	392.10336	1787.24291	181.00207000000006	387.08682	1781.41288	36.60716000000006	381.52796	1840.66224	106.83867000000006	180.32416000000003	1732.46775	267.77460000000013	262.89364	1749.82225	-81.75598999999991	332.98958000000005	1474.1839	259.6396700000001	325.2614	1471.06551	197.13634000000005	423.96515	1510.38431	-119.85454999999996	396.57757	1482.18324	-70.63825999999996	506.80579000000006	1289.24995	261.26666	536.63385	1321.11173	232.79442000000003	311.83877000000007	1459.26987	244.86123000000006	623.2708	1353.51585	-118.22756999999999	629.91432	1365.71824	-68.06219999999999	405.11924	1493.30097	-122.29502999999995	689.29927	1315.82403	259.63967	617.30519	1280.57269	275.09603	552.22579	1287.62296	251.77591000000004	780.546	1337.78833	-29.421310000000013	724.82177	1330.87364	-88.80626	656.08166	1339.95764	-93.95838	0.9490700000000177	1222.2724	145.47957000000008	357.39435	1091.70686	150.63168	368.78324	1103.36692	78.63760000000003	374.61327	1136.99128	120.26130000000003	41.623699999999985	1231.49198	-143.9881599999999	217.74480999999997	895.92635	-120.80362999999997	212.59269	891.85889	-47.31813999999997	249.87776	915.58575	-77.95968999999997	378.13841	1050.08317	117.68524000000002	90.29766000000001	812.54337	127.98948000000004	96.67002000000001	809.56057	69.28244000000002	263.30039	861.21734	-85.68786999999998	168.66409999999996	503.41624	-134.76858	171.78249	499.48436	-75.92595999999999	10.982150000000011	773.22457	88.94184000000004	131.78578	666.11473	92.73814000000003	117.27849000000002	678.99503	166.63037	140.32745000000003	658.38655	134.22625	39.31880000000002	750.58236	98.43259000000005	195.23819000000003	609.57701	153.47891	106.97425999999999	436.03195	-97.48350999999998	256.92803	385.86658	-65.21498	252.72498999999996	380.85005	-141.27652	275.36719	376.10467	-102.90679	142.76792	425.18539	-98.70374999999999	346.95453	350.34408	-105.07611000000001	
358	5.95	0.0	1250.06673	7.654451098075493E-14	28.74340000000002	1324.50129	133.41276000000008	87.45043999999999	1342.94045	-88.80625999999992	-3.1183899999999865	1385.6488	111.31288000000009	46.369069999999994	1401.24074	-76.06153999999991	-60.334019999999995	1198.8167	30.23480000000008	-35.52250000000001	1206.54488	-63.45240999999992	-55.9954	1270.81078	-13.015879999999914	-25.35385	1360.83728	2.4404800000000866	19.117070000000002	1469.84527	22.642210000000084	61.689840000000004	1568.6846	41.21695000000009	301.67012	1652.60991	109.27915000000006	171.78249	1729.21378	81.34924000000008	114.43127000000001	1661.15158	61.68984000000008	227.23556	1556.21105	83.11181000000008	214.21968	1775.58285	95.31420000000008	494.06108	1798.08947	105.75402000000005	393.18802	1786.29383	181.95114000000007	388.44264	1780.73497	37.42065000000006	382.7482	1839.71317	107.78775000000007	180.86649000000003	1731.38309	268.3169300000001	264.24946	1749.41551	-81.21365999999992	333.53190000000006	1473.23482	259.6396700000001	325.80373	1470.25202	197.13634000000005	424.77864	1509.7064	-120.26129999999996	397.1199	1481.09858	-71.31616999999996	507.75487000000004	1288.70762	260.72433	537.58293	1320.70499	232.38768000000002	312.38110000000006	1458.32079	244.86123000000006	624.08429	1352.83794	-118.63431999999999	630.72781	1365.04033	-68.46894999999999	405.79715	1492.48748	-122.70177999999996	690.24834	1315.55287	259.36851	618.25426	1280.16595	274.68928	553.17486	1287.21622	251.36917000000003	781.3595	1337.38158	-29.828060000000015	725.63526	1330.33132	-89.07742	656.89515	1339.27973	-94.36512	1.6269800000000179	1223.35706	145.34398000000007	361.46181	1102.14668	148.59795	372.03721	1113.67116	76.46829000000002	377.18933	1147.56668	117.82082000000003	40.94578999999999	1230.81407	-144.12374999999992	212.59268999999998	892.94354	-121.34595999999998	207.9829	889.14724	-47.724889999999974	245.40355	912.1962	-78.77318999999997	383.69727	1061.06532	115.24476000000003	105.48285000000001	812.40779	128.12506000000005	111.44847000000001	809.83173	69.41802000000003	257.06361	856.74313	-86.36577999999997	149.14027999999996	502.46717	-133.95509	152.39425	498.53529	-75.11246999999999	29.01456000000001	767.25896	89.34859000000004	157.41079	669.50428	94.50071000000003	141.81885000000003	681.97783	168.25735	166.35921000000002	662.72518	136.1244	58.978200000000015	746.92165	99.11050000000003	224.79508000000004	618.11868	155.91939	85.14553999999998	437.79452	-95.99210999999998	233.33675	382.07029	-64.53707	228.32020999999997	376.91817	-140.59861	250.96242	371.3593	-102.22888	120.53245999999999	425.59213	-97.48350999999998	321.60068	342.88707	-104.94053000000002	
359	5.967	0.0	1250.06673	7.654451098075493E-14	28.607820000000018	1324.77245	133.27718000000007	87.72159999999998	1342.66928	-88.80625999999992	-3.1183899999999865	1385.91997	111.04172000000008	46.775819999999996	1400.96958	-76.33270999999992	-60.469609999999996	1198.95229	30.23480000000008	-35.52250000000001	1206.4093	-63.45240999999992	-55.9954	1270.81078	-13.287039999999914	-25.08268	1360.83728	2.1693100000000864	19.523820000000004	1469.84527	22.371040000000086	62.36775000000001	1568.6846	41.08137000000009	302.34803	1651.79641	109.55032000000006	172.73156	1728.80703	81.48483000000009	115.24476000000001	1660.88041	61.68984000000008	227.77789	1555.66872	83.11181000000008	215.30433	1775.04052	95.58536000000008	495.14574	1797.1404	106.29635000000006	394.13709	1785.20918	182.35789000000005	389.5273	1780.05706	37.827400000000054	383.83285	1838.89968	108.33008000000007	181.40882000000002	1730.70518	268.45251000000013	265.33412	1749.00876	-80.94249999999991	334.07423000000006	1472.69249	259.6396700000001	326.48164	1469.70969	197.27192000000005	425.59213	1509.16407	-120.66804999999995	398.06897	1480.55625	-71.72291999999996	508.8395300000001	1288.43645	260.45317	538.532	1320.56941	232.25209000000004	313.05901000000006	1457.64288	244.72564000000006	625.16895	1352.56678	-118.90547999999998	631.67689	1364.76916	-68.74010999999999	406.61064	1491.94515	-123.10851999999997	691.19742	1315.2817	259.36851	619.20333	1279.89478	274.68928	554.12394	1286.94505	251.23358000000002	782.44415	1337.38158	-29.963640000000016	726.71992	1330.19573	-89.21301	657.97981	1339.14415	-94.50071	2.3049000000000177	1224.44172	145.34398000000007	364.44462	1110.14603	146.56422	374.34211	1121.39934	74.29898000000003	379.08748	1155.7016	115.51593000000003	40.67461999999998	1230.40733	-144.12374999999992	211.50803999999997	892.13005	-121.48153999999997	207.44057	888.46933	-47.99604999999997	244.59006	911.3827	-79.31550999999997	388.71381	1069.60699	113.21103000000002	122.02387000000002	808.88266	129.20972000000003	127.44715000000001	806.44218	70.50268000000003	254.62314	854.16707	-86.50135999999998	131.10786999999996	504.90765	-132.59927	134.09067	500.97577	-73.75664999999998	48.673960000000015	758.58171	90.83999000000004	183.44255	669.91103	95.72094000000001	167.30828000000002	681.43551	169.47759	193.06887000000003	663.94542	137.20906	79.85784000000001	740.41371	100.46632000000002	254.48755000000003	623.54196	157.00404	64.40148999999998	443.35338	-94.50070999999998	210.15222	381.25679	-63.31683000000001	204.72892999999996	376.24026	-139.37837	227.23556	369.73232	-101.14423	99.24607999999999	429.65959	-95.99210999999998	296.518	338.41286	-103.99145000000003	
